<svg width="1024" height="1024" viewBox="0 0 1024 1024" fill="none" xmlns="http://www.w3.org/2000/svg">
  <title>TEAM MANAGEMENT logo</title>
  <style>
    .primary { fill: currentColor; }
    .stroke { stroke: currentColor; }
    .accent { fill: var(--logo-accent, currentColor); }
    .accent-stroke { stroke: var(--logo-accent, currentColor); }
    text { font-family: Inter, Montserrat, Arial, sans-serif; }
  </style>

  <!-- Left person -->
  <path class="primary" d="M337 232c-39 0-70 31-70 70s31 70 70 70c19 0 37-8 50-20l-38-37h58c0-4 1-9 1-13c0-39-32-70-71-70z" opacity="0.95"/>
  <path class="primary" d="M292 400c-55 18-82 79-68 145l45 214c6 29 43 40 64 19l28-28c25-26 39-60 39-96V465c0-46-48-80-108-65z" opacity="0.95"/>
  <path d="M321 438l-15 24l22 142l31-37l-20-105l13-24h-31z" fill="white" opacity="0.95"/>

  <!-- Right person -->
  <path class="primary" d="M687 232c39 0 70 31 70 70s-31 70-70 70c-19 0-37-8-50-20l38-37h-58c0-4-1-9-1-13c0-39 32-70 71-70z" opacity="0.95"/>
  <path class="primary" d="M732 400c55 18 82 79 68 145l-45 214c-6 29-43 40-64 19l-28-28c-25-26-39-60-39-96V465c0-46 48-80 108-65z" opacity="0.95"/>
  <path d="M703 438l15 24l-22 142l-31-37l20-105l-13-24h31z" fill="white" opacity="0.95"/>

  <!-- Curved base -->
  <path class="accent-stroke" d="M202 575C265 731 372 815 512 815s247-84 310-240" stroke-width="22" stroke-linecap="round" opacity="0.55"/>
  <path class="stroke" d="M224 600c61 127 158 193 288 193s227-66 288-193" stroke-width="8" stroke-linecap="round" opacity="0.25"/>

  <!-- Central geometric mark -->
  <path class="accent-stroke" d="M398 372h228l-49 77H454l75 112" stroke-width="28" stroke-linejoin="miter" stroke-linecap="butt"/>
  <path class="accent-stroke" d="M626 372L472 654h154L519 497" stroke-width="28" stroke-linejoin="miter" stroke-linecap="butt"/>
  <path class="stroke" d="M430 687h217" stroke-width="16" stroke-linecap="square" opacity="0.7"/>

  <!-- Text -->
  <text x="512" y="885" text-anchor="middle" class="primary" font-size="104" font-weight="800" letter-spacing="54">TEAM</text>
  <text x="512" y="949" text-anchor="middle" class="accent" font-size="42" font-weight="600" letter-spacing="23">MANAGEMENT</text>
  <path class="accent-stroke" d="M189 936h95M740 936h95" stroke-width="8" stroke-linecap="round" opacity="0.8"/>
</svg>
